<svg width="187" height="187" viewBox="0 0 187 187" fill="none" xmlns="http://www.w3.org/2000/svg">
    <mask id="mask0_3_129" style="mask-type:alpha" maskUnits="userSpaceOnUse" x="0" y="0" width="187" height="187">
        <rect y="64.0056" width="138" height="138" transform="rotate(-27.6332 0 64.0056)" fill="#D9D9D9"/>
    </mask>
    <g mask="url(#mask0_3_129)">
        <path d="M63.2047 105.512C61.9595 105.608 60.7641 105.656 59.6184 105.654C58.4722 105.652 57.2611 105.56 55.9851 105.378L52.845 108.331C51.792 109.316 50.5407 109.877 49.0912 110.013C47.6411 110.148 46.3022 109.875 45.0743 109.195L42.8533 107.851C41.5714 107.089 40.6792 106.021 40.1767 104.645C39.6752 103.269 39.722 101.905 40.3173 100.553L41.8766 96.8342C41.1291 95.8913 40.4712 94.9038 39.903 93.8716C39.3344 92.8386 38.8557 91.7613 38.4669 90.6398L34.3487 89.7102C32.8411 89.4044 31.6474 88.6848 30.7675 87.5513C29.889 86.4183 29.4805 85.1322 29.5419 83.693L29.6778 81.0626C29.7763 79.6887 30.2945 78.4835 31.2324 77.447C32.1694 76.4109 33.3635 75.762 34.8146 75.5003L39.1226 74.7443C39.6924 73.6432 40.3011 72.6451 40.9488 71.7498C41.5978 70.855 42.3216 69.9485 43.12 69.0303L41.931 65.0951C41.5191 63.6743 41.6042 62.3185 42.1861 61.0277C42.7685 59.7357 43.7359 58.7529 45.0885 58.0795L47.4066 56.9253C48.7591 56.2518 50.1651 56.074 51.6245 56.3918C53.0825 56.7092 54.3062 57.4334 55.2956 58.5645L57.9608 61.6376C59.206 61.5414 60.4015 61.494 61.5472 61.4952C62.6938 61.4959 63.9046 61.5875 65.1797 61.7699L68.2875 58.8335C69.3405 57.8484 70.599 57.2761 72.0631 57.1166C73.5263 56.9576 74.8795 57.231 76.1228 57.9368L78.3004 59.2523C79.5798 60.0238 80.4729 61.1023 80.9796 62.4879C81.4868 63.8743 81.443 65.2438 80.8483 66.5964L79.2882 70.3141C80.0358 71.257 80.6938 72.245 81.2625 73.278C81.8306 74.3102 82.3091 75.387 82.6979 76.5085L86.8168 77.4394C88.3239 77.7443 89.5174 78.4635 90.3973 79.597C91.2772 80.7305 91.6857 82.0166 91.6229 83.4553L91.4716 86.1325C91.3623 87.4868 90.8497 88.6762 89.9338 89.7007C89.0174 90.7265 87.8337 91.3702 86.3825 91.632L82.0422 92.4041C81.4733 93.5046 80.8646 94.5028 80.216 95.3985C79.5683 96.2937 78.8446 97.2002 78.0448 98.118L79.2338 102.053C79.6457 103.474 79.5609 104.83 78.9794 106.122C78.3975 107.413 77.4302 108.395 76.0777 109.068L73.7582 110.223C72.4057 110.897 71.0004 111.075 69.5424 110.757C68.083 110.439 66.8586 109.715 65.8692 108.584L63.2047 105.512ZM66.0812 93.5857C68.972 92.1464 70.9102 89.9314 71.8958 86.9409C72.8805 83.9509 72.6145 81.0782 71.0979 78.3228C69.5807 75.5666 67.2526 73.7256 64.1135 72.7998C60.9753 71.8734 57.9577 72.1315 55.0607 73.574C52.1637 75.0165 50.227 77.2279 49.2507 80.2084C48.274 83.1901 48.5423 86.0557 50.0557 88.805C51.5691 91.5544 53.8959 93.3982 57.0361 94.3366C60.1754 95.2754 63.1905 95.0251 66.0812 93.5857ZM142.186 135.983C140.218 136.284 138.282 136.396 136.377 136.317C134.471 136.238 132.56 135.987 130.645 135.563L126.395 139.675C125.053 141.021 123.419 141.814 121.494 142.053C119.568 142.293 117.763 141.912 116.077 140.911L113.278 139.222C111.593 138.222 110.427 136.824 109.78 135.026C109.134 133.229 109.178 131.441 109.913 129.662L112.118 124.325C110.929 122.778 109.873 121.166 108.949 119.488C108.025 117.809 107.234 116.065 106.575 114.255L100.648 112.83C98.6959 112.398 97.1365 111.433 95.9696 109.936C94.8027 108.439 94.2674 106.747 94.3635 104.861L94.4987 101.709C94.5949 99.8221 95.2947 98.1944 96.5983 96.8258C97.9019 95.4572 99.5178 94.632 101.446 94.3502L107.42 93.3708C108.145 91.6318 109.017 89.9952 110.035 88.4611C111.052 86.9267 112.251 85.4764 113.633 84.1103L111.956 78.2612C111.422 76.4617 111.524 74.7264 112.261 73.0552C112.998 71.384 114.264 70.1018 116.058 69.2086L119.286 67.6009C121.08 66.7077 122.909 66.4492 124.773 66.8253C126.637 67.2014 128.195 68.1105 129.446 69.5527L133.544 74.196C135.513 73.8941 137.444 73.7855 139.339 73.8704C141.233 73.9544 143.137 74.2085 145.053 74.6328L149.303 70.521C150.646 69.1741 152.281 68.3811 154.206 68.142C156.131 67.9028 157.936 68.2834 159.62 69.2838L162.422 70.9732C164.106 71.9735 165.272 73.3724 165.918 75.1698C166.565 76.9672 166.52 78.7554 165.785 80.5342L163.581 85.8707C164.77 87.4165 165.826 89.0288 166.75 90.7076C167.674 92.3855 168.465 94.13 169.124 95.9409L175.05 97.3644C177.002 97.7975 178.562 98.7625 179.729 100.26C180.896 101.757 181.431 103.448 181.336 105.335L181.199 108.486C181.104 110.373 180.405 112.001 179.101 113.37C177.798 114.738 176.181 115.564 174.252 115.846L168.278 116.825C167.553 118.563 166.687 120.197 165.681 121.726C164.674 123.254 163.48 124.702 162.097 126.068L163.774 131.918C164.308 133.717 164.206 135.452 163.469 137.123C162.732 138.795 161.466 140.077 159.672 140.97L156.443 142.578C154.65 143.471 152.821 143.729 150.957 143.353C149.093 142.977 147.535 142.068 146.284 140.626L142.186 135.983ZM146.115 120.078C150.493 117.898 153.406 114.59 154.855 110.155C156.304 105.721 155.883 101.423 153.591 97.2597C151.299 93.096 147.823 90.3183 143.161 88.9268C138.5 87.5352 133.984 87.9271 129.615 90.1024C125.238 92.2818 122.32 95.5912 120.86 100.031C119.399 104.471 119.815 108.773 122.107 112.936C124.398 117.099 127.878 119.875 132.547 121.263C137.216 122.652 141.738 122.257 146.115 120.078Z" fill="#1C1B1F" fill-opacity="0.1"/>
    </g>
</svg>
