<svg width="305" height="52" viewBox="0 0 305 52" fill="none" xmlns="http://www.w3.org/2000/svg">
    <g clip-path="url(#clip0_3_11)">
        <path d="M14.4687 -1.78814e-07C16.8364 1.47193 18.1528 3.49469 19.6774 5.77778C19.6857 7.27283 19.6453 8.72922 19.5689 10.2194C19.4599 13.7013 19.7705 15.8116 21.9653 18.5566C23.1558 20.6941 22.4692 23.1222 21.9924 25.4222C22.9218 25.1611 23.85 24.8954 24.7776 24.6278C25.5531 24.4066 25.5531 24.4066 26.3443 24.1809C27.8983 23.7162 27.8983 23.7162 29.5161 22.5333C29.9384 21.0526 29.9384 21.0526 30.0948 19.6444C30.4768 19.6444 30.8588 19.6444 31.2523 19.6444C31.2523 18.8818 31.2523 18.1191 31.2523 17.3333C31.6343 17.3333 32.0163 17.3333 32.4098 17.3333C32.4695 16.9639 32.5292 16.5945 32.5907 16.2139C32.722 15.8206 32.8533 15.4274 32.9886 15.0222C33.5615 14.8316 34.1345 14.6409 34.7248 14.4444C34.9039 14.075 35.0829 13.7056 35.2674 13.325C36.0455 11.8171 36.6367 11.5993 38.1973 10.9778C39.5221 10.8243 39.5221 10.8243 40.874 10.8333C41.3231 10.8304 41.7723 10.8274 42.235 10.8243C43.406 10.9778 43.406 10.9778 44.5635 12.1333C45.5184 12.5419 46.4824 12.9303 47.4573 13.2889C47.4453 13.7536 47.4334 14.2184 47.4211 14.6972C47.2858 16.1394 47.2858 16.1394 48.036 16.7556C48.1095 18.3753 48.1432 19.9745 48.1445 21.5944C48.1516 22.0458 48.1587 22.4971 48.166 22.9622C48.1719 25.2352 48.1688 26.379 46.8785 28.3111C47.8335 28.8831 48.7884 29.4551 49.7723 30.0444C49.7253 29.6862 49.6783 29.328 49.6298 28.9589C49.1862 22.7488 51.9363 17.0006 55.9215 12.3139C56.5616 11.6649 57.2114 11.0253 57.8747 10.4C58.3283 9.92333 58.7819 9.44667 59.2493 8.95555C61.5132 7.66402 63.4319 7.67085 65.9772 8.08889C67.8115 8.68993 69.5367 9.39299 71.1859 10.4C72.0724 12.17 71.9067 14.0347 71.9433 15.9792C71.952 16.4245 71.9608 16.8698 71.9698 17.3285C71.993 18.7746 72.0074 20.2205 72.0179 21.6667C72.0215 22.1539 72.025 22.6412 72.0287 23.1433C72.051 30.3295 71.7338 36.8545 68.2922 43.3333C68.0074 43.9525 68.0074 43.9525 67.7168 44.5841C65.7685 46.3637 63.4811 45.9267 60.9425 45.8701C60.3926 45.8669 59.8427 45.8636 59.2761 45.8602C57.5186 45.8473 55.7617 45.8183 54.0044 45.7889C52.8133 45.7773 51.6223 45.7668 50.4313 45.7573C47.5105 45.7318 44.5903 45.6919 41.6698 45.6444C41.4912 45.1017 41.3125 44.559 41.1285 43.9998C40.5941 42.4195 39.9858 40.9243 39.3186 39.3972C38.1872 36.6301 37.8108 34.1746 37.6186 31.2C36.0201 32.7575 34.4878 34.3371 33.0202 36.0186C28.5311 41.1278 24.4063 45.6057 17.2177 46.1139C14.8078 45.9735 13.3551 45.5905 11.5388 43.9833C9.76947 41.8951 9.24856 39.7936 8.5998 37.1832C7.91142 35.2995 6.86448 34.4152 5.272 33.2493C4.86914 32.9544 4.46627 32.6594 4.0512 32.3556C3.72613 32.1404 3.40105 31.9252 3.06612 31.7035C1.46984 30.532 0.226851 29.5933 -0.39315 27.6683C-0.554337 26.227 -0.592025 24.8344 -0.578778 23.3842C-0.588709 22.598 -0.588709 22.598 -0.598842 21.7959C-0.606645 20.6912 -0.604085 19.5864 -0.591777 18.4817C-0.57882 16.7971 -0.615184 15.1185 -0.655643 13.4345C-0.71613 5.65361 -0.71613 5.65361 1.13938 2.98114C5.07963 -0.1471 9.55645 -0.737662 14.4687 -1.78814e-07Z" fill="white"/>
        <path d="M109.962 10.4C113.679 10.3559 117.396 10.3256 121.114 10.3048C122.377 10.2961 123.641 10.2843 124.905 10.2692C126.725 10.2481 128.545 10.2384 130.365 10.2307C130.927 10.2218 131.488 10.2128 132.066 10.2036C135.812 10.2027 138.958 10.4817 141.755 13.2347C142.942 15.5625 142.401 17.762 141.793 20.2222C140.29 24.0768 138.843 27.0193 135.427 29.4667C135.713 29.7527 136 30.0387 136.295 30.3333C137.523 32.3759 137.51 34.1116 137.163 36.4C135.92 40.9436 134.392 44.4308 130.471 47.1972C124.018 50.846 116.119 49.7133 108.985 49.4722C107.843 49.4385 106.701 49.4054 105.559 49.3729C102.782 49.2926 100.006 49.2041 97.2296 49.1111C97.5734 46.9238 97.9696 45.0387 98.8573 43.0083C99.7364 40.907 100.47 38.8136 101.116 36.6302C102.723 31.344 104.543 26.1312 106.345 20.9083C106.697 19.8848 107.049 18.8613 107.401 17.8378C108.253 15.3581 109.107 12.8789 109.962 10.4ZM118.643 17.3333C118.253 18.4392 117.868 19.547 117.486 20.6556C117.271 21.2722 117.056 21.8889 116.835 22.5243C116.221 24.3342 116.221 24.3342 116.328 26.5778C117.884 26.6092 119.439 26.632 120.994 26.65C121.43 26.6597 121.865 26.6694 122.314 26.6793C125.139 26.7038 127.537 26.4306 130.218 25.4222C132.126 23.2164 132.837 21.375 133.112 18.4889C130.251 16.9613 127.401 17.2033 124.25 17.2611C123.711 17.2663 123.172 17.2715 122.617 17.2769C121.292 17.2905 119.968 17.3094 118.643 17.3333ZM114.013 32.9333C112.5 36.0313 111.413 38.731 111.12 42.1778C113.181 42.2283 115.243 42.259 117.305 42.2861C117.888 42.3006 118.471 42.3152 119.072 42.3301C123.218 42.4327 123.218 42.4327 126.746 40.4444C128.271 38.0816 128.743 36.311 128.482 33.5111C127.881 32.7821 127.881 32.7821 126.562 32.8677C125.694 32.8723 125.694 32.8723 124.808 32.8769C124.183 32.8788 123.559 32.8806 122.915 32.8825C121.928 32.8898 121.928 32.8898 120.922 32.8972C120.262 32.8998 119.602 32.9024 118.922 32.9051C117.286 32.912 115.65 32.9215 114.013 32.9333Z" fill="white"/>
        <path d="M14.4687 -1.90735e-06C16.8364 1.47193 18.1528 3.49469 19.6774 5.77778C19.6857 7.27283 19.6453 8.72922 19.5689 10.2194C19.4599 13.7013 19.7705 15.8116 21.9653 18.5566C23.1558 20.6941 22.4692 23.1222 21.9924 25.4222C22.7623 25.1183 22.7623 25.1183 23.5478 24.8083C25.4649 24.2667 25.4649 24.2667 27.0203 24.5917C27.4619 24.6751 27.9036 24.7585 28.3586 24.8444C28.9448 24.2742 29.5223 23.695 30.0948 23.1111C31.3224 22.416 31.3224 22.416 32.663 21.8111C33.104 21.6055 33.5449 21.4 33.9991 21.1882C35.3036 20.8 35.3036 20.8 37.6186 21.3778C35.7087 23.0938 33.7988 24.8098 31.8311 26.5778C34.9238 24.3764 34.9238 24.3764 37.6547 21.775C39.255 20.3835 40.7586 20.3811 42.8273 20.2222C37.5793 28.4487 26.4251 36.2891 16.8807 38.5157C16.4667 38.5802 16.0527 38.6447 15.6262 38.7111C15.6262 39.0924 15.6262 39.4738 15.6262 39.8667C19.494 38.4109 19.494 38.4109 23.1499 36.5083C23.5319 36.2819 23.9138 36.0555 24.3074 35.8222C24.8803 36.1082 24.8803 36.1082 25.4649 36.4C24.3707 37.2467 23.2731 38.0885 22.1732 38.9278C21.8662 39.1661 21.5592 39.4044 21.2429 39.65C18.8653 41.4557 16.9205 42.7556 13.8899 42.7556C14.0809 43.7089 14.2719 44.6622 14.4687 45.6444C11.0592 43.0986 9.50812 40.8704 8.25843 36.734C7.29688 34.7846 6.05393 33.8617 4.34058 32.5361C1.17501 30.062 1.17501 30.062 -2.71201e-05 28.8889C-0.165774 27.1122 -0.260145 25.3904 -0.296183 23.6099C-0.306899 23.0825 -0.317614 22.5551 -0.328655 22.0117C-0.347221 20.8932 -0.362055 19.7746 -0.373472 18.656C-0.389698 17.5144 -0.417296 16.3728 -0.456554 15.2317C-0.781274 5.76718 -0.781274 5.76718 1.12667 2.97098C5.06542 -0.149712 9.56427 -0.73649 14.4687 -1.90735e-06Z" fill="white"/>
        <path d="M210.085 12.1333C210.23 13.5778 210.23 13.5778 210.085 15.0222C209.703 15.4036 209.321 15.7849 208.928 16.1778C207.481 16.1056 207.481 16.1056 206.034 15.6C205.365 14.4128 205.365 14.4128 204.877 13.2889C204.636 14.0296 204.636 14.0296 204.391 14.7852C204.181 15.4235 203.971 16.0618 203.755 16.7194C203.547 17.3562 203.339 17.993 203.125 18.6491C202.562 20.2222 202.562 20.2222 201.983 20.8C201.142 20.8527 200.299 20.8662 199.457 20.8636C198.651 20.8641 198.651 20.8641 197.829 20.8646C197.245 20.8634 196.66 20.8622 196.058 20.8609C194.83 20.8687 193.603 20.8774 192.376 20.8869C190.432 20.9001 188.49 20.9083 186.546 20.9011C184.676 20.8961 182.808 20.9127 180.938 20.9332C180.357 20.9261 179.775 20.919 179.176 20.9117C177.638 20.9385 176.275 21.0041 174.782 21.3778C172.792 23.4682 171.985 25.8529 171.076 28.5639C170.716 29.6263 170.716 29.6263 170.347 30.7102C170.101 31.4512 169.855 32.1922 169.609 32.9333C169.122 34.3779 168.635 35.8224 168.147 37.2667C167.789 38.3314 167.789 38.3314 167.423 39.4175C166.251 42.8562 165.019 46.2715 163.786 49.6889C160.157 49.6889 156.528 49.6889 152.789 49.6889C153.44 45.1428 153.44 45.1428 154.148 43.2092C154.305 42.7719 154.462 42.3346 154.624 41.8841C154.795 41.4209 154.965 40.9578 155.141 40.4806C156.342 37.151 157.519 33.8187 158.615 30.453C158.814 29.844 159.013 29.2351 159.218 28.6078C159.6 27.4312 159.979 26.2536 160.354 25.0748C161.988 20.0707 163.7 15.0157 167.837 11.5556C169.374 10.7883 170.572 10.8802 172.293 10.85C172.985 10.8366 173.677 10.8232 174.389 10.8094C175.141 10.7979 175.893 10.7865 176.667 10.7747C177.446 10.7613 178.225 10.7478 179.004 10.7341C180.639 10.7061 182.275 10.6801 183.911 10.6556C185.997 10.6241 188.083 10.5872 190.169 10.5486C191.779 10.5195 193.39 10.4935 195.001 10.4684C196.141 10.45 197.281 10.4289 198.42 10.4078C208.221 10.2719 208.221 10.2719 210.085 12.1333Z" fill="white"/>
        <path d="M40.8741 10.8333C41.3232 10.8304 41.7723 10.8274 42.235 10.8243C43.4061 10.9778 43.4061 10.9778 44.5636 12.1333C45.5185 12.5419 46.4825 12.9303 47.4573 13.2889C47.4454 13.7536 47.4334 14.2184 47.4211 14.6972C47.2858 16.1394 47.2858 16.1394 48.0361 16.7556C48.1095 18.3753 48.1433 19.9745 48.1446 21.5944C48.1517 22.0458 48.1588 22.4971 48.1661 22.9622C48.1719 25.2352 48.1688 26.379 46.8786 28.3111C47.4515 28.6686 48.0245 29.0261 48.6148 29.3944C49.4743 30.0022 49.4743 30.0022 50.3511 30.6222C50.3511 31.0036 50.3511 31.3849 50.3511 31.7778C51.688 31.3964 53.0249 31.0151 54.4023 30.6222C54.277 30.9373 54.1516 31.2523 54.0225 31.5769C52.4744 35.7625 52.1182 39.5527 53.2448 43.9111C51.8822 44.737 51.2306 45.1167 49.6276 44.85C49.2934 44.7308 48.9592 44.6117 48.6148 44.4889C48.9968 43.9169 49.3788 43.3449 49.7723 42.7556C50.3453 42.7556 50.9182 42.7556 51.5085 42.7556C51.3176 42.3742 51.1266 41.9929 50.9298 41.6C50.8743 40.7709 50.8547 39.9392 50.8575 39.1083C50.8552 38.4503 50.8552 38.4503 50.8529 37.779C50.9347 36.3115 51.1884 34.9441 51.5085 33.5111C48.2831 30.9498 48.2831 30.9498 44.4189 29.9C42.132 30.9378 41.2875 31.9591 39.9336 34.0889C39.8316 38.1602 43.9331 41.9636 46.2998 45.0667C43.1088 45.279 43.1088 45.279 41.9389 44.3964C38.9785 40.6844 37.8509 35.8373 37.6186 31.2C36.0201 32.7575 34.4878 34.3371 33.0203 36.0186C24.9588 45.1921 24.9588 45.1921 19.0241 45.8431C17.4849 45.8588 15.9986 45.804 14.4687 45.6444C14.2777 44.6911 14.0867 43.7378 13.89 42.7556C14.2473 42.6356 14.6047 42.5157 14.9728 42.3922C18.8484 40.9847 21.7673 39.0774 24.8862 36.4C24.4117 36.6502 23.9372 36.9005 23.4483 37.1583C22.8246 37.4801 22.201 37.8018 21.5584 38.1333C20.9406 38.4551 20.3229 38.7768 19.6865 39.1083C17.9412 39.8667 17.9412 39.8667 15.6262 39.8667C15.6262 39.4853 15.6262 39.104 15.6262 38.7111C16.2074 38.4244 16.7885 38.1376 17.3873 37.8422C19.4811 36.8064 21.5684 35.7581 23.6541 34.7062C24.7359 34.1642 25.8234 33.6336 26.9118 33.1049C32.8393 30.117 38.2287 26.1317 42.2486 20.8C38.4307 21.38 36.4713 23.3376 33.7595 26.0023C32.4589 27.1137 31.7627 27.5152 30.0949 27.7333C32.2965 25.4688 34.6182 23.4052 37.0399 21.3778C35.1126 21.6881 33.2619 22.1829 31.3971 22.75C30.9465 22.8855 30.4959 23.0211 30.0316 23.1608C29.6705 23.335 29.3094 23.5093 28.9374 23.6889C28.7464 24.2609 28.5554 24.8329 28.3586 25.4222C27.9767 25.2316 27.5947 25.0409 27.2011 24.8444C27.5712 24.5227 27.9412 24.2009 28.3225 23.8694C29.63 22.4058 29.8816 21.5607 30.0949 19.6444C30.4769 19.6444 30.8588 19.6444 31.2524 19.6444C31.2524 18.8818 31.2524 18.1191 31.2524 17.3333C31.6344 17.3333 32.0163 17.3333 32.4099 17.3333C32.4994 16.7792 32.4994 16.7792 32.5907 16.2139C32.7877 15.624 32.7877 15.624 32.9886 15.0222C33.5616 14.8316 34.1345 14.6409 34.7249 14.4444C34.9039 14.075 35.083 13.7056 35.2674 13.325C36.4438 11.0454 38.4685 10.8173 40.8741 10.8333Z" fill="white"/>
        <path d="M12.7325 3.18885e-06C14.8571 1.56685 15.9499 3.46612 16.5147 6.02604C16.6031 7.40753 16.5776 8.48881 16.205 9.82223C14.8304 10.9778 14.8304 10.9778 13.3112 11.5556C12.9292 11.7462 12.5473 11.9369 12.1537 12.1333C10.2366 12.35 10.2366 12.35 8.10248 12.1333C6.40241 10.6889 6.40241 10.6889 5.20875 9.24445C5.8768 11.7684 5.8768 11.7684 7.48757 13.7583C9.84347 15.1125 11.7928 15.1604 14.4687 15.0222C16.1088 14.5037 16.1088 14.5037 17.3624 13.8667C19.0756 15.9618 20.1214 17.3213 20.7264 19.9694C20.1209 22.5271 19.1421 23.3544 16.9985 24.7925C14.7838 25.8088 12.795 25.6881 10.4175 25.4222C10.0355 25.4222 9.65353 25.4222 9.25998 25.4222C9.58749 25.7224 9.91501 26.0225 10.2524 26.3318C10.6769 26.7347 11.1014 27.1376 11.5388 27.5528C12.1733 28.146 12.1733 28.146 12.8206 28.7512C14.0135 30.1938 14.3297 31.0825 14.4687 32.9333C13.8176 33.9806 13.8176 33.9806 12.7325 34.6667C11.1771 34.775 11.1771 34.775 9.83873 34.6667C9.61119 34.0976 9.38364 33.5286 9.14921 32.9424C8.07355 30.4357 6.67102 28.1752 5.24492 25.8556C1.19195 19.0413 -1.51893 12.6771 1.82688e-05 4.62222C2.94456 0.614757 7.90153 -1.01691 12.7325 3.18885e-06Z" fill="white"/>
        <path d="M147.551 19.5788C148.033 19.5819 148.515 19.5849 149.012 19.588C149.532 19.5899 150.052 19.5917 150.589 19.5937C151.409 19.6009 151.409 19.6009 152.247 19.6083C152.796 19.6109 153.346 19.6135 153.912 19.6162C155.274 19.6231 156.636 19.6326 157.998 19.6444C155.709 27.5441 152.981 35.3093 150.294 43.0806C150.091 43.6687 149.889 44.2569 149.68 44.8628C149.491 45.4075 149.302 45.9522 149.107 46.5134C148.938 47.0009 148.769 47.4884 148.595 47.9907C148.159 49.1111 148.159 49.1111 147.581 49.6889C146.761 49.7389 145.94 49.7507 145.119 49.7453C144.624 49.7434 144.13 49.7416 143.621 49.7397C143.101 49.7348 142.582 49.73 142.046 49.725C141.525 49.7224 141.003 49.7198 140.465 49.7171C139.171 49.7103 137.878 49.7007 136.584 49.6889C136.915 46.8181 137.54 44.3079 138.531 41.5955C138.666 41.2215 138.801 40.8474 138.94 40.4621C139.369 39.2752 139.803 38.0903 140.238 36.9056C140.805 35.3521 141.369 33.7978 141.931 32.2427C142.068 31.865 142.205 31.4874 142.346 31.0983C143.473 27.9619 144.458 24.7969 145.397 21.5992C146.025 19.6676 146.025 19.6676 147.551 19.5788Z" fill="white"/>
        <path d="M69.4497 9.82222C71.186 10.4 71.186 10.4 71.7647 11.5556C71.8574 13.0352 71.9155 14.498 71.9433 15.9792C71.9521 16.4245 71.9608 16.8698 71.9698 17.3285C71.993 18.7746 72.0075 20.2205 72.0179 21.6667C72.0215 22.1539 72.0251 22.6412 72.0287 23.1433C72.051 30.3295 71.7339 36.8545 68.2922 43.3333C68.0535 43.7944 67.8148 44.2554 67.5688 44.7304C65.964 46.1787 64.4995 45.8659 62.3962 45.7889C61.6599 45.768 60.9235 45.7472 60.1649 45.7257C59.6001 45.6989 59.0354 45.6721 58.4535 45.6444C58.6445 44.8818 58.8355 44.1191 59.0323 43.3333C59.3784 43.4287 59.7246 43.524 60.0812 43.6222C61.4129 43.9755 61.4129 43.9755 63.0835 43.9111C63.8589 44.0881 64.6317 44.2777 65.3985 44.4889C65.3985 43.9169 65.3985 43.3449 65.3985 42.7556C65.0165 42.7556 64.6345 42.7556 64.241 42.7556C64.241 42.3742 64.241 41.9929 64.241 41.6C64.6946 41.2425 65.1482 40.885 65.6155 40.5167C67.0914 39.3239 67.5423 38.6499 68.2922 36.9778C67.8815 37.2906 67.8815 37.2906 67.4625 37.6097C64.4301 39.7342 62.1389 40.4192 58.4535 39.8667C56.6811 39.2889 56.6811 39.2889 55.5598 38.7111C55.5598 39.4738 55.5598 40.2364 55.5598 41.0222C55.1778 41.0222 54.7958 41.0222 54.4023 41.0222C54.4023 39.3062 54.4023 37.5902 54.4023 35.8222C55.2617 35.5362 55.2617 35.5362 56.1385 35.2444C56.5205 35.8164 56.9025 36.3884 57.296 36.9778C59.0628 37.3936 60.7254 37.3005 62.5047 36.9778C65.2222 35.073 65.8858 33.1465 66.556 30.0444C65.6965 30.3304 65.6965 30.3304 64.8197 30.6222C61.2558 30.9139 59.5849 30.6413 56.7173 28.3111C56.245 27.9369 56.245 27.9369 55.7632 27.555C54.1572 25.5485 54.786 22.6579 54.981 20.2222C55.5682 17.2425 56.5636 15.0973 58.4535 12.7111C59.7557 11.9167 59.7557 11.9167 60.7685 11.5556C60.1177 13.2727 59.482 14.6377 58.4535 16.1778C58.314 17.4989 58.314 17.4989 58.3812 18.8861C58.3916 19.3531 58.4021 19.8201 58.4128 20.3012C58.4263 20.6565 58.4397 21.0117 58.4535 21.3778C60.0569 21.9114 61.0966 22.0499 62.758 22.0639C63.4193 22.0762 63.4193 22.0762 64.094 22.0887C65.5914 21.9359 66.4645 21.6392 67.7135 20.8C68.9374 19.0325 68.999 17.5688 68.9433 15.4556C68.9277 14.6825 68.9277 14.6825 68.9117 13.8937C68.8982 13.5035 68.8848 13.1132 68.871 12.7111C69.2529 12.7111 69.6349 12.7111 70.0285 12.7111C69.6465 11.9484 69.2645 11.1858 68.871 10.4C69.062 10.2093 69.2529 10.0187 69.4497 9.82222Z" fill="white"/>
        <path d="M42.8273 20.8C37.5089 27.4018 31.1016 31.6342 23.6925 35.6056C22.9898 35.9854 22.9898 35.9854 22.273 36.3729C18.1828 38.4928 18.1828 38.4928 15.6262 38.1333C15.8172 37.18 16.0081 36.2267 16.2049 35.2444C15.8229 35.0538 15.441 34.8631 15.0474 34.6667C15.2882 31.6023 15.6565 29.8473 17.9412 27.7333C21.0801 25.8007 24.0721 24.4242 27.7799 24.2667C27.9709 24.4573 28.1618 24.648 28.3586 24.8444C28.7089 24.4557 28.7089 24.4557 29.0662 24.059C30.2065 23.0083 31.2517 22.4479 32.6631 21.8111C33.104 21.6055 33.5449 21.4 33.9991 21.1882C35.3036 20.8 35.3036 20.8 37.6186 21.3778C35.7087 23.0938 33.7988 24.8098 31.8311 26.5778C34.9383 24.3387 34.9383 24.3387 37.7633 21.775C39.4988 20.1043 40.579 20.0518 42.8273 20.8Z" fill="white"/>
        <path d="M45.3933 29.5502C47.0392 30.0979 48.2453 30.8205 49.6638 31.8139C50.1211 32.1304 50.5784 32.447 51.0496 32.7731C51.392 33.0166 51.7345 33.2602 52.0873 33.5111C51.9925 33.9185 51.8978 34.3259 51.8002 34.7457C51.4987 36.4558 51.4514 38.0239 51.4724 39.7583C51.4776 40.3221 51.4828 40.8859 51.4882 41.4668C51.4949 41.8921 51.5016 42.3174 51.5085 42.7556C50.9356 42.7556 50.3626 42.7556 49.7723 42.7556C49.5813 43.3276 49.3903 43.8996 49.1935 44.4889C51.8674 44.4889 54.5412 44.4889 57.296 44.4889C57.487 44.1076 57.678 43.7262 57.8748 43.3333C57.5047 43.1665 57.1347 42.9997 56.7534 42.8278C55.5598 42.1778 55.5598 42.1778 54.981 41.0222C55.2342 39.7944 55.2342 39.7944 55.5598 38.7111C55.9298 38.8064 56.2998 38.9018 56.6811 39C60.0297 39.5458 62.6468 39.8787 65.6517 38.1333C66.1411 37.752 66.6305 37.3707 67.1347 36.9778C67.5167 36.9778 67.8987 36.9778 68.2922 36.9778C67.6136 38.906 67.0255 40.3141 65.3985 41.6C65.0165 41.6 64.6345 41.6 64.241 41.6C64.241 41.9813 64.241 42.3627 64.241 42.7556C64.623 42.7556 65.0049 42.7556 65.3985 42.7556C65.3985 43.3276 65.3985 43.8996 65.3985 44.4889C63.2562 45.036 62.2784 45.2426 60.2621 44.2361C59.8562 43.9382 59.4504 43.6403 59.0323 43.3333C58.8413 44.096 58.6503 44.8587 58.4535 45.6444C52.9149 45.6444 47.3763 45.6444 41.6698 45.6444C42.8273 44.4889 42.8273 44.4889 44.3465 44.4167C44.8001 44.4405 45.2537 44.4643 45.7211 44.4889C45.3585 44.0569 44.9959 43.6249 44.6223 43.1799C43.9129 42.3263 43.9129 42.3263 43.189 41.4556C42.719 40.8925 42.249 40.3294 41.7648 39.7493C39.3771 36.6687 39.3771 36.6687 39.3187 34.45C40.342 31.9261 42.4931 29.3782 45.3933 29.5502Z" fill="white"/>
        <path d="M9.8749 -0.144444C10.383 -0.15934 10.891 -0.174236 11.4145 -0.189583C11.8494 -0.12702 12.2843 -0.0644578 12.7325 4.91738e-07C13.89 1.73333 13.89 1.73333 13.8538 2.925C13.3112 4.04444 13.3112 4.04444 12.0565 4.67413C9.69975 5.43028 7.40546 5.45942 4.9465 5.57917C4.21687 5.67748 4.21687 5.67748 3.4725 5.77778C2.46403 7.79135 2.63123 9.93183 2.89376 12.1333C3.9786 15.2628 3.9786 15.2628 6.36624 17.3333C7.84296 17.3747 9.30323 17.3871 10.7792 17.3694C11.188 17.3668 11.5969 17.3642 12.0181 17.3615C13.0279 17.3547 14.0377 17.3444 15.0475 17.3333C14.5817 20.1274 14.5817 20.1274 13.5644 20.9806C11.5267 21.5543 9.61958 21.7465 7.52374 21.3778C6.07687 20.2222 6.07687 20.2222 5.20875 19.0667C5.45485 19.9954 5.70977 20.9219 5.96835 21.8472C6.10935 22.3634 6.25036 22.8795 6.39563 23.4113C6.9649 24.8964 7.44579 25.5973 8.68123 26.5778C9.13483 26.7327 9.58842 26.8876 10.0558 27.0472C12.2504 28.0384 13.1126 29.209 14.4687 31.2C14.4188 32.9941 14.014 33.3873 12.7325 34.6667C11.2133 34.7389 11.2133 34.7389 9.83873 34.6667C9.61119 34.0976 9.38364 33.5286 9.14921 32.9424C8.07355 30.4357 6.67102 28.1752 5.24492 25.8556C1.19195 19.0413 -1.51893 12.6771 1.82688e-05 4.62222C2.45398 1.28242 5.80764 -0.0726836 9.8749 -0.144444Z" fill="white"/>
        <path d="M12.7325 0C15.5155 0.444287 16.9347 1.98177 18.7392 4.04444C20.1077 6.5726 19.8837 8.8897 19.7084 11.6629C19.5451 14.7798 20.0755 16.243 21.963 18.6424C23.1124 20.5362 22.4781 22.1889 21.9924 24.2667C21.9686 24.6957 21.9447 25.1247 21.9201 25.5667C21.4137 26.5778 21.4137 26.5778 19.4966 27.5528C17.0842 28.784 16.4684 30.3852 15.581 32.8634C15.0037 34.1895 14.4342 34.9178 13.3112 35.8222C12.9292 35.8222 12.5473 35.8222 12.1537 35.8222C12.3328 35.4886 12.5118 35.1549 12.6963 34.8111C13.3016 33.5314 13.7386 32.6065 13.89 31.2C13.1122 29.9891 13.1122 29.9891 11.9729 28.8889C10.5507 27.4144 9.5096 26.1473 8.68124 24.2667C9.2542 24.4573 9.82716 24.648 10.4175 24.8444C13.2154 25.2234 15.5353 25.1672 17.9774 23.6528C19.5216 22.3836 19.6605 22.04 20.0753 19.9694C19.626 17.6452 18.8114 16.2978 17.3625 14.4444C16.9685 14.6351 16.5746 14.8258 16.1688 15.0222C13.3924 15.9658 11.2591 15.9393 8.53655 14.8417C6.03958 13.312 6.03958 13.312 5.20875 12.1333C4.81086 10.2917 4.81086 10.2917 4.63 8.66667C5.7875 9.46111 5.7875 9.46111 6.945 10.4C6.945 10.7813 6.945 11.1627 6.945 11.5556C10.3259 11.7581 12.6475 11.6522 15.6262 9.82222C15.9999 6.56176 15.9999 6.56176 14.9819 3.54566C14.2581 2.72535 13.4972 1.93804 12.7325 1.15556C12.7325 0.774222 12.7325 0.392889 12.7325 0Z" fill="white"/>
        <path d="M68.871 9.24444C69.253 10.3884 69.6349 11.5324 70.0285 12.7111C69.6465 12.7111 69.2645 12.7111 68.871 12.7111C68.9329 13.0947 68.9948 13.4782 69.0586 13.8734C69.6259 18.0446 69.6259 18.0446 68.7625 20.2222C67.3775 21.7479 66.161 22.4181 64.1144 22.7274C61.9456 22.7645 60.591 22.7776 58.7067 21.6306C57.5384 19.6528 57.5619 18.4426 57.8748 16.1778C59.0323 14.3 59.0323 14.3 60.1898 12.7111C60.1898 12.1391 60.1898 11.5671 60.1898 10.9778C63.2919 9.67382 65.513 9.03492 68.871 9.24444Z" fill="white"/>
        <path d="M149.317 10.9778C153.137 10.9778 156.956 10.9778 160.892 10.9778C159.228 17.7667 159.228 17.7667 158.577 19.0667C154.757 19.0667 150.937 19.0667 147.002 19.0667C147.581 15.6 147.581 15.6 149.317 10.9778Z" fill="white"/>
        <path d="M43.9848 29.4667C46.2941 29.7902 47.7614 30.4816 49.6638 31.8139C50.1211 32.1304 50.5784 32.447 51.0496 32.7731C51.392 33.0166 51.7345 33.2602 52.0873 33.5111C51.9925 33.9185 51.8978 34.3259 51.8002 34.7457C51.4987 36.4558 51.4514 38.0239 51.4724 39.7583C51.4776 40.3221 51.4828 40.8859 51.4882 41.4668C51.4949 41.8921 51.5016 42.3174 51.5085 42.7556C47.587 41.637 44.8065 39.5003 41.6698 36.9778C41.2879 36.7871 40.9059 36.5964 40.5123 36.4C40.745 33.1476 41.8373 31.7755 43.9848 29.4667Z" fill="white"/>
        <path d="M40.0059 11.8083C40.5326 11.8672 41.0593 11.926 41.602 11.9866C42.0063 12.035 42.4107 12.0835 42.8273 12.1333C43.0183 12.896 43.2093 13.6587 43.406 14.4444C43.0241 14.4444 42.6421 14.4444 42.2485 14.4444C42.2485 14.8258 42.2485 15.2071 42.2485 15.6C40.7207 15.7907 39.1928 15.9813 37.6186 16.1778C41.0563 16.7498 41.0563 16.7498 44.5635 17.3333C44.5635 17.7147 44.5635 18.096 44.5635 18.4889C43.4176 18.4889 42.2717 18.4889 41.0911 18.4889C41.0911 18.8702 41.0911 19.2516 41.0911 19.6444C40.6166 19.7145 40.1421 19.7845 39.6532 19.8566C39.0295 19.9534 38.4058 20.0502 37.7633 20.15C36.8367 20.2908 36.8367 20.2908 35.8914 20.4344C34.3186 20.7639 33.239 21.2283 31.8311 21.9556C31.2581 21.9556 30.6852 21.9556 30.0948 21.9556C30.0948 21.1929 30.0948 20.4302 30.0948 19.6444C30.4768 19.6444 30.8588 19.6444 31.2523 19.6444C31.2523 18.8818 31.2523 18.1191 31.2523 17.3333C31.6343 17.3333 32.0163 17.3333 32.4098 17.3333C32.4695 16.9639 32.5292 16.5945 32.5907 16.2139C32.722 15.8206 32.8533 15.4274 32.9886 15.0222C33.5615 14.8316 34.1345 14.6409 34.7248 14.4444C35.1296 13.6838 35.5161 12.9132 35.8823 12.1333C37.4005 11.3755 38.3306 11.6154 40.0059 11.8083Z" fill="white"/>
        <path d="M33.5674 28.8889C33.9493 28.8889 34.3313 28.8889 34.7249 28.8889C34.2199 32.4418 31.0255 34.8308 28.3586 36.9778C24.5293 39.6532 20.3974 41.8633 16.2049 43.9111C17.7328 44.1018 19.2607 44.2924 20.8349 44.4889C20.8349 44.8702 20.8349 45.2516 20.8349 45.6444C18.7341 45.6444 16.6332 45.6444 14.4687 45.6444C14.2777 44.6911 14.0867 43.7378 13.89 42.7556C14.2473 42.6356 14.6047 42.5157 14.9728 42.3922C18.8484 40.9847 21.7673 39.0774 24.8862 36.4C24.4117 36.6503 23.9372 36.9005 23.4483 37.1583C22.5128 37.641 22.5128 37.641 21.5584 38.1333C20.9406 38.4551 20.3229 38.7768 19.6865 39.1083C17.9412 39.8667 17.9412 39.8667 15.6262 39.8667C15.6262 39.4853 15.6262 39.104 15.6262 38.7111C16.2074 38.4244 16.7885 38.1376 17.3873 37.8422C26.023 34.1196 26.023 34.1196 33.5674 28.8889Z" fill="white"/>
        <path d="M179.99 39.2167C180.504 39.2152 181.017 39.2137 181.546 39.2122C182.884 39.2889 182.884 39.2889 184.042 39.8667C184.114 41.2389 184.114 41.2389 184.042 42.7556C183.66 43.1369 183.278 43.5182 182.884 43.9111C182.311 43.9111 181.738 43.9111 181.148 43.9111C181.148 42.9578 181.148 42.0044 181.148 41.0222C180.193 41.0222 179.238 41.0222 178.254 41.0222C178.177 41.4192 178.101 41.8162 178.021 42.2252C177.919 42.7458 177.817 43.2664 177.712 43.8028C177.611 44.3189 177.51 44.8351 177.406 45.3668C177.097 46.8 177.097 46.8 176.518 48.5333C177.473 48.724 178.428 48.9147 179.412 49.1111C179.603 48.1578 179.794 47.2044 179.99 46.2222C179.418 46.2222 178.845 46.2222 178.254 46.2222C178.254 45.6502 178.254 45.0782 178.254 44.4889C179.782 44.4889 181.31 44.4889 182.884 44.4889C182.378 48.9667 182.378 48.9667 181.727 50.2667C179.053 50.2667 176.379 50.2667 173.624 50.2667C173.956 46.6884 174.574 43.2122 175.939 39.8667C177.379 39.148 178.385 39.212 179.99 39.2167Z" fill="white"/>
        <path d="M246.257 39.2167C246.824 39.2152 247.391 39.2137 247.975 39.2122C249.44 39.2889 249.44 39.2889 250.598 39.8667C250.198 43.4544 249.27 46.7945 248.283 50.2667C245.418 50.2667 242.553 50.2667 239.602 50.2667C239.876 48.8724 240.151 47.4782 240.433 46.0417C240.519 45.605 240.604 45.1683 240.692 44.7184C241.022 43.0586 241.38 41.4738 241.916 39.8667C243.427 39.1129 244.573 39.2122 246.257 39.2167ZM244.231 41.0222C243.938 41.9358 243.65 42.8509 243.363 43.7667C243.202 44.2761 243.041 44.7855 242.875 45.3104C242.4 46.9171 242.4 46.9171 242.495 49.1111C243.641 49.1111 244.787 49.1111 245.968 49.1111C246.541 46.4418 247.114 43.7724 247.704 41.0222C246.558 41.0222 245.412 41.0222 244.231 41.0222Z" fill="white"/>
        <path d="M289.953 39.2167C290.466 39.2152 290.979 39.2137 291.508 39.2122C292.846 39.2889 292.846 39.2889 294.004 39.8667C294.076 41.2389 294.076 41.2389 294.004 42.7556C293.622 43.1369 293.24 43.5182 292.846 43.9111C292.273 43.9111 291.7 43.9111 291.11 43.9111C291.11 43.1484 291.11 42.3858 291.11 41.6C290.155 41.4093 289.2 41.2187 288.216 41.0222C288.139 41.4192 288.063 41.8162 287.983 42.2252C287.881 42.7458 287.779 43.2664 287.674 43.8028C287.573 44.3189 287.472 44.8351 287.369 45.3668C287.059 46.8 287.059 46.8 286.48 48.5333C287.435 48.724 288.39 48.9147 289.374 49.1111C289.565 48.1578 289.756 47.2044 289.953 46.2222C289.38 46.2222 288.807 46.2222 288.216 46.2222C288.407 45.6502 288.598 45.0782 288.795 44.4889C290.132 44.4889 291.469 44.4889 292.846 44.4889C292.765 45.3438 292.68 46.1984 292.593 47.0528C292.546 47.5287 292.499 48.0046 292.451 48.495C292.268 49.6889 292.268 49.6889 291.689 50.2667C290.327 50.3087 288.964 50.315 287.601 50.3028C286.855 50.2976 286.108 50.2924 285.338 50.287C284.76 50.2803 284.182 50.2736 283.586 50.2667C284.775 42.468 284.775 42.468 285.901 39.8667C287.341 39.148 288.347 39.212 289.953 39.2167Z" fill="white"/>
        <path d="M276.641 39.2889C278.424 40.891 279.354 42.2143 280.114 44.4889C280.687 42.9636 281.26 41.4382 281.85 39.8667C282.614 39.8667 283.378 39.8667 284.165 39.8667C283.491 43.3628 282.745 46.82 281.85 50.2667C280.512 50.2667 280.512 50.2667 278.956 49.6889C278.139 48.1806 277.721 46.7232 277.22 45.0667C276.647 46.7827 276.074 48.4987 275.484 50.2667C274.72 50.2667 273.956 50.2667 273.169 50.2667C273.525 48.544 273.887 46.8232 274.254 45.1028C274.355 44.6116 274.455 44.1204 274.559 43.6143C274.66 43.147 274.761 42.6796 274.864 42.1981C274.955 41.7654 275.046 41.3327 275.14 40.8869C275.484 39.8667 275.484 39.8667 276.641 39.2889Z" fill="white"/>
        <path d="M200.572 39.2167C201.146 39.2152 201.72 39.2137 202.311 39.2122C203.719 39.2889 203.719 39.2889 204.298 39.8667C204.195 43.3969 203.377 46.8462 202.562 50.2667C199.697 50.2667 196.832 50.2667 193.88 50.2667C194.212 46.6884 194.83 43.2122 196.195 39.8667C197.714 39.1088 198.879 39.2123 200.572 39.2167ZM198.51 41.0222C198.217 41.9358 197.929 42.8509 197.642 43.7667C197.481 44.2761 197.32 44.7855 197.154 45.3104C196.679 46.9171 196.679 46.9171 196.774 49.1111C197.92 49.1111 199.066 49.1111 200.247 49.1111C200.82 46.4418 201.393 43.7724 201.983 41.0222C200.837 41.0222 199.691 41.0222 198.51 41.0222Z" fill="white"/>
        <path d="M188.274 39.1557C189.044 39.168 189.044 39.168 189.829 39.1806C190.599 39.1861 190.599 39.1861 191.385 39.1918C192.723 39.2889 192.723 39.2889 193.88 39.8667C193.846 40.7099 193.794 41.5525 193.736 42.3944C193.695 43.0983 193.695 43.0983 193.654 43.8163C193.302 45.0667 193.302 45.0667 192.117 45.8115C191.558 46.0148 191.558 46.0148 190.987 46.2222C191.369 47.5569 191.751 48.8916 192.144 50.2667C191.189 50.2667 190.234 50.2667 189.25 50.2667C188.678 48.932 188.105 47.5973 187.514 46.2222C187.132 47.5569 186.75 48.8916 186.357 50.2667C185.402 50.2667 184.447 50.2667 183.463 50.2667C183.82 48.6524 184.182 47.0399 184.548 45.4278C184.649 44.969 184.75 44.5102 184.853 44.0375C184.954 43.5981 185.055 43.1586 185.159 42.7059C185.249 42.3005 185.34 41.895 185.434 41.4773C185.978 39.8437 186.563 39.326 188.274 39.1557ZM188.093 41.0222C188.093 41.9756 188.093 42.9289 188.093 43.9111C189.048 43.9111 190.003 43.9111 190.987 43.9111C191.178 42.9578 191.369 42.0044 191.565 41.0222C190.42 41.0222 189.274 41.0222 188.093 41.0222Z" fill="white"/>
        <path d="M263.511 39.1806C263.962 39.1724 264.414 39.1642 264.879 39.1557C266.342 39.3005 267.276 39.7143 268.539 40.4444C267.858 48.0575 267.858 48.0575 265.645 50.2667C264.38 50.3086 263.113 50.315 261.847 50.3028C260.808 50.295 260.808 50.295 259.747 50.287C259.21 50.2803 258.674 50.2736 258.121 50.2667C260.255 39.2072 260.255 39.2072 263.511 39.1806ZM262.751 41.0222C261.987 43.6916 261.224 46.3609 260.436 49.1111C262.442 48.8251 262.442 48.8251 264.488 48.5333C264.684 47.7156 264.876 46.8968 265.066 46.0778C265.174 45.622 265.281 45.1662 265.392 44.6965C265.715 43.1857 265.715 43.1857 265.645 41.0222C264.69 41.0222 263.735 41.0222 262.751 41.0222Z" fill="white"/>
        <path d="M55.5598 26.5778C55.9417 26.7684 56.3237 26.9591 56.7173 27.1556C56.7173 27.5369 56.7173 27.9182 56.7173 28.3111C57.0754 28.4899 57.4335 28.6686 57.8024 28.8528C58.5982 29.25 59.394 29.6472 60.1897 30.0444C61.2742 30.0851 62.3601 30.0932 63.4452 30.0806C64.0256 30.0753 64.606 30.0701 65.2041 30.0648C65.8733 30.0547 65.8733 30.0547 66.556 30.0444C66.3166 33.0917 65.8095 34.7691 63.6622 36.9778C62.2701 37.6727 61.3762 37.6137 59.828 37.5917C59.1185 37.5838 59.1185 37.5838 58.3947 37.5759C58.0321 37.5692 57.6696 37.5625 57.296 37.5556C57.1289 37.1861 56.9618 36.8167 56.7896 36.4361C56.2379 35.1566 56.2379 35.1566 54.981 34.6667C55.363 34.6667 55.745 34.6667 56.1385 34.6667C56.1385 34.2853 56.1385 33.904 56.1385 33.5111C56.9025 33.3204 57.6664 33.1298 58.4535 32.9333C58.12 30.6863 56.9712 29.4606 55.5598 27.7333C55.5598 27.352 55.5598 26.9707 55.5598 26.5778Z" fill="white"/>
        <path d="M53.8236 15.0222C54.5242 17.1802 54.4194 19.1972 54.3661 21.45C54.3157 24.1183 54.4351 26.5491 55.1257 29.1417C55.7526 31.7526 55.2056 33.0167 53.8394 35.267C52.8613 37.1309 52.8149 38.9422 52.6661 41.0222C52.4751 41.0222 52.2841 41.0222 52.0873 41.0222C51.8537 37.2904 52.3237 34.6314 53.8236 31.2C53.6326 31.3907 53.4416 31.5813 53.2448 31.7778C52.2805 31.8013 51.3153 31.8025 50.3511 31.7778C48.6095 26.5619 50.0461 22.4849 52.3823 17.7819C52.8542 16.8576 53.3376 15.9392 53.8236 15.0222Z" fill="white"/>
        <path d="M300.442 39.1806C300.957 39.1843 301.472 39.188 302.002 39.1918C303.264 39.2889 303.264 39.2889 303.842 39.8667C303.866 41.022 303.867 42.178 303.842 43.3333C302.888 43.524 301.933 43.7147 300.949 43.9111C301.14 42.9578 301.331 42.0044 301.528 41.0222C300.573 41.0222 299.618 41.0222 298.634 41.0222C298.666 42.0823 298.666 42.0823 299.213 43.3333C299.809 43.7862 300.406 44.239 301.021 44.7056C301.57 45.2061 302.119 45.7066 302.685 46.2222C302.628 49.1678 302.628 49.1678 301.528 50.2667C300.262 50.3086 298.995 50.3151 297.729 50.3028C296.69 50.295 296.69 50.295 295.629 50.287C295.093 50.2803 294.556 50.2736 294.004 50.2667C294.004 49.1227 294.004 47.9787 294.004 46.8C294.959 46.6093 295.914 46.4187 296.898 46.2222C296.898 46.9849 296.898 47.7476 296.898 48.5333C297.852 48.724 298.807 48.9147 299.791 49.1111C299.193 47.1549 298.794 46.3403 297.115 45.1028C295.74 43.9111 295.74 43.9111 295.451 42.1056C295.546 41.5574 295.642 41.0092 295.74 40.4444C297.64 39.18 298.239 39.1453 300.442 39.1806Z" fill="white"/>
        <path d="M232.078 39.2889C232.651 39.2889 233.224 39.2889 233.814 39.2889C233.623 40.8142 233.432 42.3396 233.235 43.9111C234.381 43.9111 235.527 43.9111 236.708 43.9111C236.899 42.5764 237.09 41.2418 237.287 39.8667C238.241 39.676 239.196 39.4853 240.18 39.2889C239.508 43.0725 238.598 46.6529 237.287 50.2667C236.523 50.076 235.759 49.8853 234.972 49.6889C235.354 48.3542 235.736 47.0196 236.129 45.6444C234.983 45.6444 233.837 45.6444 232.657 45.6444C232.466 46.9791 232.275 48.3138 232.078 49.6889C231.123 49.8796 230.168 50.0702 229.184 50.2667C231.117 40.2479 231.117 40.2479 232.078 39.2889Z" fill="white"/>
        <path d="M207.192 39.2889C207.765 39.2889 208.338 39.2889 208.928 39.2889C208.666 42.7064 208.258 45.8478 207.192 49.1111C208.338 49.1111 209.483 49.1111 210.664 49.1111C210.736 48.4438 210.807 47.7764 210.881 47.0889C211.187 44.614 211.754 42.274 212.4 39.8667C213.355 39.676 214.31 39.4853 215.294 39.2889C214.69 43.1495 213.903 46.6536 212.4 50.2667C209.727 50.2667 207.053 50.2667 204.298 50.2667C204.669 48.5448 205.043 46.8236 205.419 45.1028C205.525 44.6116 205.63 44.1204 205.739 43.6143C205.842 43.147 205.944 42.6796 206.05 42.1981C206.191 41.5491 206.191 41.5491 206.335 40.8869C206.613 39.8667 206.613 39.8667 207.192 39.2889Z" fill="white"/>
        <path d="M45.7211 15.6C46.485 15.9813 47.249 16.3627 48.036 16.7556C48.0829 18.3568 48.1173 19.9567 48.1446 21.5583C48.1591 22.0123 48.1737 22.4662 48.1886 22.9339C48.1942 23.3715 48.1998 23.8091 48.2056 24.2599C48.2147 24.6623 48.2238 25.0647 48.2332 25.4794C47.975 26.9182 47.4263 27.4074 46.2998 28.3111C44.966 28.8392 44.966 28.8392 43.4784 29.25C42.7465 29.4578 42.7465 29.4578 41.9999 29.6698C40.5461 30.0359 39.0914 30.3429 37.6186 30.6222C38.2032 27.2038 40.0781 25.8961 42.7165 23.9304C43.9848 23.1111 43.9848 23.1111 45.7211 22.5333C45.6136 21.9971 45.5062 21.4608 45.3955 20.9083C45.1423 19.0667 45.1423 19.0667 45.7211 17.3333C45.7211 16.7613 45.7211 16.1893 45.7211 15.6Z" fill="white"/>
        <path d="M221.082 39.2167C221.595 39.2152 222.108 39.2137 222.637 39.2122C223.975 39.2889 223.975 39.2889 225.133 39.8667C224.699 44.2722 224.699 44.2722 223.397 46.2222C222.144 46.3915 222.144 46.3915 220.72 46.3306C220.247 46.3149 219.774 46.2993 219.287 46.2832C218.924 46.2631 218.561 46.2429 218.188 46.2222C217.997 47.5569 217.806 48.8916 217.609 50.2667C216.654 50.2667 215.699 50.2667 214.715 50.2667C215.071 48.544 215.434 46.8232 215.801 45.1028C215.901 44.6116 216.002 44.1204 216.106 43.6143C216.206 43.147 216.307 42.6796 216.411 42.1981C216.502 41.7654 216.593 41.3327 216.686 40.8869C217.382 38.8246 219.2 39.2112 221.082 39.2167ZM219.345 41.0222C219.154 42.3569 218.963 43.6916 218.767 45.0667C219.722 45.0667 220.676 45.0667 221.66 45.0667C221.851 43.732 222.042 42.3973 222.239 41.0222C221.284 41.0222 220.329 41.0222 219.345 41.0222Z" fill="white"/>
        <path d="M35.3036 29.4667C35.3036 31.7658 34.5459 32.2178 32.9886 33.8722C31.1796 35.8054 29.4392 37.7619 27.7437 39.7944C25.4038 42.4079 23.0993 44.1814 19.5553 44.6627C18.3029 44.7056 18.3029 44.7056 16.2049 44.4889C15.8229 44.1076 15.441 43.7262 15.0474 43.3333C15.3712 43.2268 15.695 43.1203 16.0286 43.0106C23.8235 40.1956 29.7706 35.4977 35.3036 29.4667Z" fill="white"/>
        <path d="M46.8785 28.3111C48.8318 29.3944 48.8318 29.3944 50.351 30.6222C50.351 31.0036 50.351 31.3849 50.351 31.7778C51.6879 31.3964 53.0248 31.0151 54.4023 30.6222C54.2769 30.9373 54.1516 31.2523 54.0225 31.5769C52.4744 35.7625 52.1181 39.5527 53.2448 43.9111C51.8822 44.737 51.2305 45.1167 49.6276 44.85C49.1263 44.6712 49.1263 44.6712 48.6148 44.4889C48.9968 43.9169 49.3787 43.3449 49.7723 42.7556C50.3452 42.7556 50.9182 42.7556 51.5085 42.7556C51.3175 42.3742 51.1265 41.9929 50.9298 41.6C50.8743 40.7709 50.8546 39.9392 50.8574 39.1083C50.8552 38.4503 50.8552 38.4503 50.8529 37.779C50.9347 36.3115 51.1884 34.9441 51.5085 33.5111C48.2831 30.9498 48.2831 30.9498 44.4189 29.9C42.2407 30.8884 41.3829 32.1999 39.9336 34.0889C39.5516 34.0889 39.1696 34.0889 38.7761 34.0889C38.5851 33.1356 38.3941 32.1822 38.1973 31.2C40.9025 28.9994 43.3421 27.8788 46.8785 28.3111Z" fill="white"/>
        <path d="M5.20872 21.3778C5.35196 21.6995 5.4952 22.0213 5.64278 22.3528C6.77964 24.4524 7.79848 26.2388 10.0919 27.1194C12.2951 28.0315 13.1282 29.232 14.4687 31.2C14.4188 32.9941 14.0139 33.3873 12.7324 34.6667C11.2132 34.7389 11.2132 34.7389 9.8387 34.6667C9.62384 34.1185 9.40898 33.5703 9.18761 33.0056C8.38605 31.0905 7.35412 29.4353 6.22153 27.6972C5.00492 25.7378 4.62073 25.1119 4.70232 22.75C4.86943 22.2972 5.03654 21.8443 5.20872 21.3778Z" fill="white"/>
        <path d="M63.3729 7.98055C63.8324 7.97236 64.292 7.96417 64.7655 7.95573C65.9772 8.08889 65.9772 8.08889 67.1347 9.24444C66.667 9.37106 66.1992 9.49767 65.7172 9.62812C61.8256 10.781 59.5036 11.5695 57.296 15.0222C56.7231 15.8802 56.7231 15.8802 56.1385 16.7556C55.8765 17.9241 55.8765 17.9241 55.7723 19.1998C55.7238 19.6635 55.6753 20.1271 55.6253 20.6048C55.5798 21.0863 55.5343 21.5678 55.4874 22.0639C55.4374 22.5521 55.3875 23.0403 55.336 23.5433C55.2133 24.747 55.0966 25.9512 54.981 27.1556C53.8235 26 53.8235 26 53.6698 24.1335C53.6728 23.379 53.6758 22.6246 53.6788 21.8472C53.6759 21.1002 53.6729 20.3532 53.6698 19.5835C53.923 15.8776 54.5335 13.3263 57.296 10.7611C57.7019 10.3753 58.1077 9.9895 58.5259 9.59201C60.1935 8.16994 61.2215 7.99799 63.3729 7.98055Z" fill="white"/>
        <path d="M38.1973 10.9778C39.0411 10.9466 39.8852 10.9242 40.7293 10.9056C41.1993 10.8921 41.6693 10.8787 42.1536 10.8649C43.406 10.9778 43.406 10.9778 44.5635 12.1333C45.5184 12.5419 46.4824 12.9303 47.4573 13.2889C47.4573 14.0516 47.4573 14.8142 47.4573 15.6C46.8843 15.7907 46.3114 15.9813 45.721 16.1778C45.53 16.5591 45.3391 16.9404 45.1423 17.3333C42.0865 17.1427 39.0307 16.952 35.8823 16.7556C37.67 15.5658 38.0291 15.4619 40.0421 15.5278C41.1343 15.5635 41.1343 15.5635 42.2485 15.6C42.2485 15.2187 42.2485 14.8373 42.2485 14.4444C41.6756 14.2538 41.1026 14.0631 40.5123 13.8667C41.2763 13.8667 42.0402 13.8667 42.8273 13.8667C42.8273 13.4853 42.8273 13.104 42.8273 12.7111C41.1084 12.5204 39.3895 12.3298 37.6186 12.1333C37.8096 11.752 38.0005 11.3707 38.1973 10.9778Z" fill="white"/>
        <path d="M253.491 39.2889C254.064 39.4796 254.637 39.6702 255.228 39.8667C254.64 43.0263 254.029 46.0858 252.913 49.1111C254.25 49.1111 255.587 49.1111 256.964 49.1111C256.964 49.4924 256.964 49.8738 256.964 50.2667C254.672 50.2667 252.38 50.2667 250.019 50.2667C250.376 48.6524 250.738 47.0399 251.104 45.4278C251.205 44.969 251.306 44.5102 251.409 44.0375C251.51 43.5981 251.611 43.1586 251.715 42.7059C251.805 42.3005 251.896 41.895 251.99 41.4773C252.334 40.4444 252.334 40.4444 253.491 39.2889Z" fill="white"/>
        <path d="M37.0399 30.0444C39.0424 31.3772 39.0645 31.7199 39.608 33.9444C40.3193 36.4991 41.2032 38.3135 42.8273 40.4444C43.2828 41.0567 43.2828 41.0567 43.7475 41.6813C44.5914 42.8151 45.4426 43.9428 46.2998 45.0667C43.1078 45.2791 43.1078 45.2791 41.9366 44.3918C38.7651 40.4214 37.6895 34.9618 37.0399 30.0444Z" fill="white"/>
        <path d="M41.6698 34.0889C43.4939 34.4274 44.4996 34.945 45.8567 36.1991C46.1887 36.5049 46.5207 36.8106 46.8627 37.1256C47.2022 37.4462 47.5416 37.7669 47.8913 38.0972C48.2397 38.4156 48.5881 38.734 48.9471 39.0621C49.8266 39.8814 50.6707 40.7382 51.5085 41.6C51.5085 41.9813 51.5085 42.3627 51.5085 42.7556C47.4821 41.6071 44.389 39.5938 41.6698 36.4C41.6698 35.6373 41.6698 34.8747 41.6698 34.0889Z" fill="white"/>
        <path d="M272.011 39.2889C272.584 39.4796 273.157 39.6702 273.748 39.8667C273.376 41.3838 273.001 42.9003 272.626 44.4167C272.521 44.8479 272.415 45.2791 272.306 45.7234C271.498 48.9802 271.498 48.9802 270.854 50.2667C270.09 50.2667 269.326 50.2667 268.539 50.2667C268.815 48.8581 269.092 47.4498 269.371 46.0417C269.449 45.6428 269.527 45.244 269.607 44.8331C269.944 43.1352 270.305 41.5107 270.854 39.8667C271.236 39.676 271.618 39.4853 272.011 39.2889Z" fill="white"/>
        <path d="M23.1499 26.5778C21.6202 29.0098 20.0425 30.9431 17.9412 32.9333C17.6189 33.2789 17.2966 33.6245 16.9645 33.9806C16.2049 34.6667 16.2049 34.6667 15.0474 34.6667C15.2866 31.6224 15.759 29.9119 17.9412 27.7333C19.6973 26.5457 21.0529 26.4615 23.1499 26.5778Z" fill="white"/>
        <path d="M34.7248 31.2C35.2978 31.3907 35.8708 31.5813 36.4611 31.7778C26.5424 43.6422 26.5424 43.6422 20.8349 45.0667C20.8349 44.6853 20.8349 44.304 20.8349 43.9111C21.1236 43.7964 21.4123 43.6817 21.7098 43.5635C27.0598 41.0512 31.4717 36.0715 34.7248 31.2Z" fill="white"/>
        <path d="M52.666 18.4889C52.857 18.4889 53.048 18.4889 53.2448 18.4889C53.2448 21.3489 53.2448 24.2089 53.2448 27.1556C52.0989 27.5369 50.9529 27.9182 49.7723 28.3111C49.5057 24.5853 50.1117 22.2428 52.0873 19.0667C52.2783 18.876 52.4693 18.6853 52.666 18.4889Z" fill="white"/>
        <path d="M41.0911 20.2222C40.6166 20.4177 40.6166 20.4177 40.1325 20.6172C37.7436 21.9567 35.9161 23.9939 33.9471 25.8759C32.5524 27.0369 31.8599 27.5297 30.0948 27.7333C32.2965 25.4688 34.6182 23.4052 37.0398 21.3778C35.1126 21.6881 33.2618 22.1829 31.397 22.75C30.7211 22.9533 30.7211 22.9533 30.0315 23.1608C29.6705 23.335 29.3094 23.5093 28.9374 23.6889C28.7464 24.2609 28.5554 24.8329 28.3586 25.4222C27.9766 25.2316 27.5947 25.0409 27.2011 24.8444C30.6808 20.5321 35.7534 19.0157 41.0911 20.2222Z" fill="white"/>
        <path d="M82.1822 21.9556C83.901 21.9556 85.6199 21.9556 87.3909 21.9556C87.0089 23.2902 86.6269 24.6249 86.2334 26C84.5145 26 82.7956 26 81.0247 26C81.4066 24.6653 81.7886 23.3307 82.1822 21.9556Z" fill="white"/>
        <path d="M91.4422 27.7333C93.161 27.7333 94.8799 27.7333 96.6509 27.7333C96.1445 31.1278 96.1445 31.1278 95.4934 31.7778C93.9478 31.8593 92.4119 31.8023 90.8634 31.7778C91.0544 30.4431 91.2454 29.1084 91.4422 27.7333Z" fill="white"/>
        <path d="M89.039 39.2325C90.2258 39.2513 91.4127 39.2701 92.5996 39.2889C92.4086 40.6236 92.2176 41.9582 92.0209 43.3333C90.302 43.3333 88.5831 43.3333 86.8121 43.3333C87.4111 39.3184 87.4111 39.3184 89.039 39.2325Z" fill="white"/>
        <path d="M95.4934 33.5111C97.2123 33.5111 98.9311 33.5111 100.702 33.5111C100.32 34.8458 99.9382 36.1804 99.5446 37.5556C97.8257 37.5556 96.1068 37.5556 94.3359 37.5556C94.7178 36.2209 95.0998 34.8862 95.4934 33.5111Z" fill="white"/>
        <path d="M78.1309 33.5111C79.6588 33.5111 81.1867 33.5111 82.7609 33.5111C82.5699 34.8458 82.379 36.1804 82.1822 37.5556C80.4633 37.5556 78.7444 37.5556 76.9734 37.5556C77.3554 36.2209 77.7374 34.8862 78.1309 33.5111Z" fill="white"/>
        <path d="M97.8083 27.7333C99.3362 27.7333 100.864 27.7333 102.438 27.7333C102.056 29.068 101.674 30.4027 101.281 31.7778C99.5619 31.7778 97.8431 31.7778 96.0721 31.7778C96.645 30.4431 97.218 29.1084 97.8083 27.7333Z" fill="white"/>
        <path d="M37.0398 11.5556C37.4218 11.7462 37.8038 11.9369 38.1973 12.1333C38.1973 12.5147 38.1973 12.896 38.1973 13.2889C37.6244 13.4796 37.0514 13.6702 36.4611 13.8667C36.2701 14.4387 36.0791 15.0107 35.8823 15.6C35.5004 15.9813 35.1184 16.3627 34.7248 16.7556C34.7248 17.1369 34.7248 17.5182 34.7248 17.9111C34.1519 18.1018 33.5789 18.2924 32.9886 18.4889C32.2795 20.2271 32.2795 20.2271 31.8311 21.9556C31.2581 21.9556 30.6852 21.9556 30.0948 21.9556C30.0948 21.1929 30.0948 20.4302 30.0948 19.6444C30.4768 19.6444 30.8588 19.6444 31.2523 19.6444C31.2523 18.8818 31.2523 18.1191 31.2523 17.3333C31.6343 17.3333 32.0163 17.3333 32.4098 17.3333C32.4695 16.9639 32.5292 16.5945 32.5907 16.2139C32.722 15.8206 32.8533 15.4274 32.9886 15.0222C33.5615 14.8316 34.1345 14.6409 34.7248 14.4444C35.1296 13.6838 35.5161 12.9132 35.8823 12.1333C36.2643 11.9427 36.6463 11.752 37.0398 11.5556Z" fill="white"/>
        <path d="M101.281 16.1778C103 16.1778 104.719 16.1778 106.49 16.1778C106.108 17.5124 105.726 18.8471 105.332 20.2222C103.804 20.2222 102.276 20.2222 100.702 20.2222C100.893 18.8876 101.084 17.5529 101.281 16.1778Z" fill="white"/>
        <path d="M89.7059 16.1778C91.4248 16.1778 93.1437 16.1778 94.9146 16.1778C94.5327 17.5124 94.1507 18.8471 93.7571 20.2222C92.0382 20.2222 90.3194 20.2222 88.5484 20.2222C88.9304 18.8876 89.3123 17.5529 89.7059 16.1778Z" fill="white"/>
        <path d="M78.1309 16.1778C79.6588 16.1778 81.1867 16.1778 82.7609 16.1778C82.5699 17.5124 82.379 18.8471 82.1822 20.2222C80.4633 20.2222 78.7444 20.2222 76.9734 20.2222C77.3554 18.8876 77.7374 17.5529 78.1309 16.1778Z" fill="white"/>
        <path d="M207.445 10.8694C208.928 10.9778 208.928 10.9778 210.085 12.1333C210.23 13.5778 210.23 13.5778 210.085 15.0222C209.703 15.4036 209.321 15.7849 208.928 16.1778C206.291 15.8568 206.291 15.8568 205.455 15.0222C205.383 13.2889 205.383 13.2889 205.455 11.5556C206.034 10.9778 206.034 10.9778 207.445 10.8694Z" fill="white"/>
        <path d="M103.017 10.4C104.736 10.4 106.455 10.4 108.226 10.4C107.844 11.7347 107.462 13.0693 107.068 14.4444C105.54 14.6351 104.013 14.8258 102.438 15.0222C102.629 13.4969 102.82 11.9716 103.017 10.4Z" fill="white"/>
        <path d="M97.2296 10.4C98.9485 10.4 100.667 10.4 102.438 10.4C102.056 11.7347 101.674 13.0693 101.281 14.4444C99.753 14.4444 98.2251 14.4444 96.6509 14.4444C96.8419 13.1098 97.0329 11.7751 97.2296 10.4Z" fill="white"/>
        <path d="M93.0902 45.0102C94.2771 45.0291 95.464 45.0479 96.6509 45.0667C96.1445 48.4611 96.1445 48.4611 95.4934 49.1111C93.9478 49.1927 92.4119 49.1356 90.8634 49.1111C91.4624 45.0961 91.4624 45.0961 93.0902 45.0102Z" fill="white"/>
        <path d="M79.8672 45.0667C81.5861 45.0667 83.305 45.0667 85.0759 45.0667C84.694 46.4013 84.312 47.736 83.9184 49.1111C82.3905 49.1111 80.8626 49.1111 79.2885 49.1111C79.4794 47.7764 79.6704 46.4418 79.8672 45.0667Z" fill="white"/>
        <path d="M94.8264 39.2325C96.0133 39.2513 97.2002 39.2701 98.3871 39.2889C97.8807 42.6833 97.8807 42.6833 97.2296 43.3333C95.684 43.4149 94.1482 43.3579 92.5996 43.3333C93.1986 39.3184 93.1986 39.3184 94.8264 39.2325Z" fill="white"/>
        <path d="M89.7059 33.5111C91.4248 33.5111 93.1437 33.5111 94.9146 33.5111C94.5327 34.8458 94.1507 36.1804 93.7571 37.5556C92.0382 37.5556 90.3194 37.5556 88.5484 37.5556C88.9304 36.2209 89.3123 34.8862 89.7059 33.5111Z" fill="white"/>
        <path d="M87.3027 27.6769C88.4896 27.6957 89.6765 27.7145 90.8634 27.7333C90.357 31.1278 90.357 31.1278 89.7059 31.7778C88.1603 31.8593 86.6245 31.8023 85.0759 31.7778C85.6749 27.7628 85.6749 27.7628 87.3027 27.6769Z" fill="white"/>
        <path d="M99.5446 21.9556C101.072 21.9556 102.6 21.9556 104.175 21.9556C103.668 25.35 103.668 25.35 103.017 26C101.471 26.0816 99.9356 26.0245 98.3871 26C98.8935 23.2556 98.8935 23.2556 99.5446 21.9556Z" fill="white"/>
        <path d="M83.9184 16.1778C85.4463 16.1778 86.9742 16.1778 88.5484 16.1778C88.3574 17.5124 88.1664 18.8471 87.9697 20.2222C86.2508 20.2222 84.5319 20.2222 82.7609 20.2222C83.1429 18.8876 83.5249 17.5529 83.9184 16.1778Z" fill="white"/>
        <path d="M38.1973 12.1333C39.7252 12.1333 41.2531 12.1333 42.8273 12.1333C43.0183 12.896 43.2093 13.6587 43.406 14.4444C43.0241 14.4444 42.6421 14.4444 42.2485 14.4444C42.2485 14.8258 42.2485 15.2071 42.2485 15.6C40.1477 15.6 38.0468 15.6 35.8823 15.6C36.0733 14.8373 36.2643 14.0747 36.4611 13.2889C37.034 13.2889 37.607 13.2889 38.1973 13.2889C38.1973 12.9076 38.1973 12.5262 38.1973 12.1333Z" fill="white"/>
        <path d="M93.0902 10.3436C94.2771 10.3624 95.464 10.3812 96.6509 10.4C96.1445 13.7944 96.1445 13.7944 95.4934 14.4444C93.9478 14.526 92.4119 14.469 90.8634 14.4444C91.4624 10.4295 91.4624 10.4295 93.0902 10.3436Z" fill="white"/>
        <path d="M81.5153 10.3436C82.7022 10.3624 83.889 10.3812 85.0759 10.4C84.5695 13.7944 84.5695 13.7944 83.9184 14.4444C82.3728 14.526 80.837 14.469 79.2885 14.4444C79.8874 10.4295 79.8874 10.4295 81.5153 10.3436Z" fill="white"/>
        <path d="M75.7278 10.3436C76.9147 10.3624 78.1016 10.3812 79.2885 10.4C78.782 13.7944 78.782 13.7944 78.131 14.4444C76.5854 14.526 75.0495 14.469 73.501 14.4444C74.1 10.4295 74.1 10.4295 75.7278 10.3436Z" fill="white"/>
        <path d="M84.8589 39.2167C85.8257 39.2524 85.8257 39.2524 86.8121 39.2889C86.3057 42.6833 86.3057 42.6833 85.6546 43.3333C84.109 43.4149 82.5732 43.3579 81.0247 43.3333C81.4787 40.4624 81.6793 39.3261 84.8589 39.2167Z" fill="white"/>
        <path d="M69.4497 24.2667C69.2688 25.6389 69.2688 25.6389 68.8709 27.1556C66.5249 28.7169 65.2925 28.4436 62.5047 28.3111C62.1228 28.1204 61.7408 27.9298 61.3472 27.7333C61.3472 27.352 61.3472 26.9707 61.3472 26.5778C62.3708 26.1892 63.396 25.8048 64.4218 25.4222C64.9925 25.2077 65.5633 24.9932 66.1513 24.7722C67.7135 24.2667 67.7135 24.2667 69.4497 24.2667Z" fill="white"/>
        <path d="M93.7571 21.9556C95.285 21.9556 96.8129 21.9556 98.3871 21.9556C97.8807 25.35 97.8807 25.35 97.2296 26C95.684 26.0816 94.1482 26.0245 92.5996 26C93.106 23.2556 93.106 23.2556 93.7571 21.9556Z" fill="white"/>
        <path d="M76.3947 21.9556C77.9226 21.9556 79.4505 21.9556 81.0247 21.9556C80.8337 23.2902 80.6427 24.6249 80.4459 26C78.727 26 77.0082 26 75.2372 26C75.6192 24.6653 76.0011 23.3307 76.3947 21.9556Z" fill="white"/>
        <path d="M53.8235 36.9778C54.0145 36.9778 54.2055 36.9778 54.4023 36.9778C54.4381 37.5974 54.4739 38.2171 54.5108 38.8556C54.7851 41.1004 54.7851 41.1004 56.4641 42.4306C56.9296 42.7285 57.3951 43.0264 57.8748 43.3333C57.6838 43.9053 57.4928 44.4773 57.296 45.0667C55.1952 45.0667 53.0943 45.0667 50.9298 45.0667C51.6938 44.6853 52.4577 44.304 53.2448 43.9111C53.1381 43.5804 53.0314 43.2497 52.9215 42.909C52.5031 40.7648 53.2328 39.0592 53.8235 36.9778Z" fill="white"/>
        <path d="M26.0436 33.5111C26.6166 33.7018 27.1895 33.8924 27.7799 34.0889C26.5364 35.9509 25.7545 36.2842 23.7309 37.0771C22.1065 37.7472 20.5806 38.5844 19.0376 39.422C17.9412 39.8667 17.9412 39.8667 15.6262 39.8667C15.6262 39.4853 15.6262 39.104 15.6262 38.7111C19.0986 36.9778 22.5711 35.2444 26.0436 33.5111Z" fill="white"/>
        <path d="M22.5711 34.0889C22.4988 35.1361 22.4988 35.1361 21.9924 36.4C19.8235 37.7779 18.1938 38.3595 15.6262 38.1333C15.7347 37.0861 15.7347 37.0861 16.2049 35.8222C18.3238 34.1299 19.8987 33.9028 22.5711 34.0889Z" fill="white"/>
        <path d="M20.8349 39.2889C21.2169 39.4796 21.5989 39.6702 21.9924 39.8667C20.2617 41.7939 18.5594 42.8427 16.2049 43.9111C17.7328 44.1018 19.2607 44.2924 20.8349 44.4889C20.8349 44.8702 20.8349 45.2516 20.8349 45.6444C18.7341 45.6444 16.6332 45.6444 14.4687 45.6444C14.2777 44.6911 14.0867 43.7378 13.89 42.7556C14.2943 42.6021 14.6987 42.4487 15.1153 42.2906C15.642 42.0866 16.1687 41.8825 16.7113 41.6722C17.2351 41.4711 17.7588 41.27 18.2984 41.0628C19.7481 40.5107 19.7481 40.5107 20.8349 39.2889Z" fill="white"/>
        <path d="M64.8062 7.89479C65.9772 8.08889 65.9772 8.08889 67.1347 9.24444C64.0596 10.4519 61.7597 11.331 58.4535 10.4C60.285 7.85603 61.8819 7.8463 64.8062 7.89479Z" fill="white"/>
        <path d="M50.9298 36.4C52.391 37.8588 52.4099 38.791 52.7384 40.8056C52.8354 41.385 52.9324 41.9645 53.0323 42.5615C53.1024 43.0068 53.1725 43.4522 53.2448 43.9111C51.0926 45.0938 51.0926 45.0938 49.6276 44.85C49.2934 44.7308 48.9592 44.6117 48.6148 44.4889C48.9968 43.9169 49.3788 43.3449 49.7723 42.7556C50.3453 42.7556 50.9182 42.7556 51.5085 42.7556C51.3176 42.3742 51.1266 41.9929 50.9298 41.6C50.8896 40.7101 50.8809 39.8185 50.8936 38.9278C50.8988 38.4556 50.9041 37.9834 50.9095 37.4969C50.9162 37.1349 50.9229 36.7729 50.9298 36.4Z" fill="white"/>
        <path d="M54.981 15.6C55.363 15.6 55.745 15.6 56.1385 15.6C55.7566 19.4133 55.3746 23.2267 54.981 27.1556C53.8235 26 53.8235 26 53.7105 23.9913C53.7182 23.1923 53.732 22.3933 53.7512 21.5944C53.7564 21.1863 53.7616 20.7782 53.767 20.3576C53.7807 19.3495 53.8014 18.3414 53.8235 17.3333C54.2055 17.3333 54.5875 17.3333 54.981 17.3333C54.981 16.7613 54.981 16.1893 54.981 15.6Z" fill="white"/>
        <path d="M54.981 35.2444C55.363 35.2444 55.745 35.2444 56.1385 35.2444C56.5205 35.8164 56.9025 36.3884 57.296 36.9778C59.0702 37.4015 59.0702 37.4015 60.7685 37.5556C60.7685 37.7462 60.7685 37.9369 60.7685 38.1333C59.8136 38.1333 58.8586 38.1333 57.8748 38.1333C57.6838 38.5147 57.4928 38.896 57.296 39.2889C56.7231 39.0982 56.1501 38.9076 55.5598 38.7111C55.5598 39.4738 55.5598 40.2364 55.5598 41.0222C55.1778 41.0222 54.7958 41.0222 54.4023 41.0222C54.3867 40.1677 54.3755 39.313 54.3661 38.4583C54.3594 37.9824 54.3527 37.5065 54.3458 37.0161C54.4023 35.8222 54.4023 35.8222 54.981 35.2444Z" fill="white"/>
        <path d="M35.3036 29.4667C35.3036 31.8235 34.3967 32.3887 32.8077 34.0889C32.3444 34.5894 31.8811 35.0899 31.4038 35.6056C30.4019 36.6559 29.3941 37.694 28.3586 38.7111C28.3586 38.3298 28.3586 37.9484 28.3586 37.5556C27.9766 37.3649 27.5947 37.1742 27.2011 36.9778C27.4951 36.726 27.789 36.4743 28.0918 36.2149C30.597 34.0512 32.9904 31.8337 35.3036 29.4667Z" fill="white"/>
        <path d="M37.0399 30.0444C39.0363 31.3732 39.1162 31.7972 39.7166 34.0167C39.8553 34.5157 39.9941 35.0147 40.1371 35.5288C40.3228 36.2461 40.3228 36.2461 40.5123 36.9778C40.6481 37.3844 40.7839 37.7911 40.9238 38.2101C41.0911 39.2889 41.0911 39.2889 39.9336 41.0222C38.4313 37.4091 37.6441 33.9051 37.0399 30.0444Z" fill="white"/>
        <path d="M45.7211 15.6C46.485 15.9813 47.249 16.3627 48.0361 16.7556C47.602 20.5833 47.602 20.5833 46.2998 22.5333C45.07 19.2833 45.07 19.2833 45.7211 17.3333C45.7211 16.7613 45.7211 16.1893 45.7211 15.6Z" fill="white"/>
        <path d="M54.4023 32.9333C54.7843 32.9333 55.1662 32.9333 55.5598 32.9333C55.182 34.9654 54.6836 36.9161 54.0767 38.8917C53.9208 39.4019 53.7649 39.912 53.6042 40.4377C53.4856 40.8212 53.367 41.2048 53.2448 41.6C53.0538 41.6 52.8628 41.6 52.666 41.6C52.4632 38.2248 52.5692 35.9071 54.4023 32.9333Z" fill="white"/>
        <path d="M59.611 11.5556C59.993 11.5556 60.3749 11.5556 60.7685 11.5556C59.9609 14.1207 58.7074 15.5452 56.7172 17.3333C56.1443 17.6193 56.1443 17.6193 55.5598 17.9111C56.4213 15.2525 57.7279 13.5765 59.611 11.5556Z" fill="white"/>
        <path d="M40.874 29.9722C41.3276 29.9961 41.7812 30.0199 42.2486 30.0444C41.5519 31.4852 40.8281 32.7493 39.9336 34.0889C39.5516 34.0889 39.1696 34.0889 38.7761 34.0889C38.4144 32.7167 38.4144 32.7167 38.1973 31.2C39.3548 30.0444 39.3548 30.0444 40.874 29.9722Z" fill="white"/>
        <path d="M19.6774 41.6C19.6774 42.172 19.6774 42.744 19.6774 43.3333C20.0594 43.7147 20.4414 44.096 20.8349 44.4889C17.3308 44.6017 17.3308 44.6017 16.2049 44.4889C15.8229 44.1076 15.441 43.7262 15.0474 43.3333C16.5753 42.7613 18.1032 42.1893 19.6774 41.6Z" fill="white"/>
        <path d="M50.3511 24.2667C51.115 24.4573 51.879 24.648 52.6661 24.8444C52.8571 25.6071 53.048 26.3698 53.2448 27.1556C52.2899 27.1556 51.3349 27.1556 50.3511 27.1556C50.3511 26.2022 50.3511 25.2489 50.3511 24.2667Z" fill="white"/>
        <path d="M85.6546 21.9556C86.2276 21.9556 86.8005 21.9556 87.3909 21.9556C87.0089 23.2902 86.6269 24.6249 86.2334 26C85.6604 26 85.0875 26 84.4971 26C85.0035 23.2556 85.0035 23.2556 85.6546 21.9556Z" fill="white"/>
        <path d="M37.0399 11.5556C37.4218 11.7462 37.8038 11.9369 38.1974 12.1333C38.1974 12.5147 38.1974 12.896 38.1974 13.2889C37.6244 13.4796 37.0514 13.6702 36.4611 13.8667C36.2701 14.4387 36.0791 15.0107 35.8824 15.6C35.3094 15.7907 34.7364 15.9813 34.1461 16.1778C34.349 14.3046 34.4715 13.5112 35.9185 12.2417C36.2886 12.0153 36.6586 11.7888 37.0399 11.5556Z" fill="white"/>
        <path d="M94.9146 27.7333C95.4876 27.7333 96.0605 27.7333 96.6509 27.7333C96.4599 28.8773 96.2689 30.0213 96.0721 31.2C95.4992 31.3907 94.9262 31.5813 94.3359 31.7778C94.5269 30.4431 94.7178 29.1084 94.9146 27.7333Z" fill="white"/>
        <path d="M94.9146 10.4C95.4876 10.4 96.0605 10.4 96.6509 10.4C96.4599 11.544 96.2689 12.688 96.0721 13.8667C95.4992 14.0573 94.9262 14.248 94.3359 14.4444C94.5269 13.1098 94.7178 11.7751 94.9146 10.4Z" fill="white"/>
        <path d="M15.6262 4.62222C15.8172 4.62222 16.0082 4.62222 16.2049 4.62222C16.2049 6.33822 16.2049 8.05422 16.2049 9.82222C15.059 10.3942 15.059 10.3942 13.89 10.9778C14.0809 10.4058 14.2719 9.83378 14.4687 9.24445C14.8507 9.24445 15.2326 9.24445 15.6262 9.24445C15.5188 8.69628 15.4113 8.14811 15.3007 7.58333C15.0474 5.77778 15.0474 5.77778 15.6262 4.62222Z" fill="white"/>
        <path d="M94.9146 45.0667C95.4876 45.0667 96.0605 45.0667 96.6509 45.0667C96.4599 46.2107 96.2689 47.3547 96.0721 48.5333C95.4992 48.724 94.9262 48.9147 94.3359 49.1111C94.5269 47.7764 94.7178 46.4418 94.9146 45.0667Z" fill="white"/>
        <path d="M100.702 27.7333C101.275 27.7333 101.848 27.7333 102.438 27.7333C102.056 29.068 101.674 30.4027 101.281 31.7778C100.899 31.7778 100.517 31.7778 100.123 31.7778C100.314 30.4431 100.505 29.1084 100.702 27.7333Z" fill="white"/>
        <path d="M89.1271 27.7333C89.7001 27.7333 90.2731 27.7333 90.8634 27.7333C90.6724 28.8773 90.4814 30.0213 90.2846 31.2C89.7117 31.3907 89.1387 31.5813 88.5484 31.7778C88.7394 30.4431 88.9304 29.1084 89.1271 27.7333Z" fill="white"/>
        <path d="M104.753 16.1778C105.326 16.1778 105.899 16.1778 106.49 16.1778C106.108 17.5124 105.726 18.8471 105.332 20.2222C104.95 20.2222 104.568 20.2222 104.175 20.2222C104.366 18.8876 104.557 17.5529 104.753 16.1778Z" fill="white"/>
        <path d="M100.702 10.4C101.275 10.4 101.848 10.4 102.438 10.4C102.056 11.7347 101.674 13.0693 101.281 14.4444C100.899 14.4444 100.517 14.4444 100.123 14.4444C100.314 13.1098 100.505 11.7751 100.702 10.4Z" fill="white"/>
        <path d="M77.5522 10.4C78.1252 10.4 78.6981 10.4 79.2884 10.4C79.0975 11.544 78.9065 12.688 78.7097 13.8667C78.1367 14.0573 77.5638 14.248 76.9734 14.4444C77.1644 13.1098 77.3554 11.7751 77.5522 10.4Z" fill="white"/>
        <path d="M83.3397 45.0667C83.9126 45.0667 84.4856 45.0667 85.0759 45.0667C84.6939 46.4013 84.312 47.736 83.9184 49.1111C83.5364 49.1111 83.1545 49.1111 82.7609 49.1111C82.9519 47.7764 83.1429 46.4418 83.3397 45.0667Z" fill="white"/>
        <path d="M91.4421 39.2889C91.8241 39.2889 92.206 39.2889 92.5996 39.2889C92.4086 40.6236 92.2176 41.9582 92.0208 43.3333C91.4479 43.3333 90.8749 43.3333 90.2846 43.3333C90.791 40.5889 90.791 40.5889 91.4421 39.2889Z" fill="white"/>
        <path d="M85.6546 39.2889C86.0366 39.2889 86.4186 39.2889 86.8121 39.2889C86.6211 40.4329 86.4301 41.5769 86.2334 42.7556C85.6604 42.9462 85.0875 43.1369 84.4971 43.3333C85.0035 40.5889 85.0035 40.5889 85.6546 39.2889Z" fill="white"/>
        <path d="M93.1784 33.5111C93.7513 33.7018 94.3243 33.8924 94.9146 34.0889C94.5326 35.2329 94.1507 36.3769 93.7571 37.5556C93.1842 37.5556 92.6112 37.5556 92.0209 37.5556C92.4028 36.2209 92.7848 34.8862 93.1784 33.5111Z" fill="white"/>
        <path d="M93.1784 16.1778C93.7513 16.1778 94.3243 16.1778 94.9146 16.1778C94.5326 17.5124 94.1507 18.8471 93.7571 20.2222C93.3751 20.2222 92.9932 20.2222 92.5996 20.2222C92.7906 18.8876 92.9816 17.5529 93.1784 16.1778Z" fill="white"/>
        <path d="M83.3397 10.4C83.9126 10.4 84.4856 10.4 85.0759 10.4C84.8849 11.544 84.6939 12.688 84.4972 13.8667C83.9242 14.0573 83.3512 14.248 82.7609 14.4444C82.9519 13.1098 83.1429 11.7751 83.3397 10.4Z" fill="white"/>
        <path d="M97.2296 39.2889C97.6116 39.2889 97.9935 39.2889 98.3871 39.2889C98.1961 40.4329 98.0051 41.5769 97.8083 42.7556C97.2354 42.9462 96.6624 43.1369 96.0721 43.3333C96.5785 40.5889 96.5785 40.5889 97.2296 39.2889Z" fill="white"/>
        <path d="M81.6034 33.5111C81.9854 33.5111 82.3674 33.5111 82.7609 33.5111C82.5699 34.8458 82.3789 36.1804 82.1822 37.5556C81.8002 37.5556 81.4182 37.5556 81.0247 37.5556C81.2156 36.2209 81.4066 34.8862 81.6034 33.5111Z" fill="white"/>
        <path d="M98.9658 33.5111C99.5388 33.5111 100.112 33.5111 100.702 33.5111C100.32 34.8458 99.9381 36.1804 99.5446 37.5556C99.1626 37.5556 98.7806 37.5556 98.3871 37.5556C98.5781 36.2209 98.7691 34.8862 98.9658 33.5111Z" fill="white"/>
        <path d="M5.78748 28.3111C6.94497 29.0694 6.94497 29.0694 8.10247 30.0444C8.10247 30.6164 8.10247 31.1884 8.10247 31.7778C7.33852 31.5871 6.57457 31.3964 5.78748 31.2C5.78748 30.2467 5.78748 29.2933 5.78748 28.3111Z" fill="white"/>
        <path d="M79.8672 21.9556C80.2491 21.9556 80.6311 21.9556 81.0246 21.9556C80.8337 23.2902 80.6427 24.6249 80.4459 26C79.8729 25.8093 79.3 25.6187 78.7097 25.4222C79.0916 24.2782 79.4736 23.1342 79.8672 21.9556Z" fill="white"/>
        <path d="M103.017 21.9556C103.399 21.9556 103.781 21.9556 104.175 21.9556C103.984 23.0996 103.793 24.2436 103.596 25.4222C103.023 25.6129 102.45 25.8036 101.86 26C102.193 24.6216 102.567 23.3036 103.017 21.9556Z" fill="white"/>
        <path d="M106.49 10.4C107.063 10.4 107.635 10.4 108.226 10.4C107.844 11.7347 107.462 13.0693 107.068 14.4444C106.686 14.4444 106.304 14.4444 105.911 14.4444C106.102 13.1098 106.293 11.7751 106.49 10.4Z" fill="white"/>
    </g>
    <defs>
        <clipPath id="clip0_3_11">
            <rect width="305" height="52" fill="white"/>
        </clipPath>
    </defs>
</svg>
